<svg xmlns="http://www.w3.org/2000/svg" width="31" height="31" viewBox="0 0 31 31" fill="none">
<path fill-rule="evenodd" clip-rule="evenodd" d="M6.73889 1.34783H24.2606C27.2382 1.34783 29.6519 3.7616 29.6519 6.73913V24.2609C29.6519 27.2384 27.2382 29.6522 24.2606 29.6522H6.73889C3.76135 29.6522 1.34758 27.2384 1.34758 24.2609V6.73913C1.34758 3.7616 3.76135 1.34783 6.73889 1.34783ZM24.2606 0C27.9825 0 30.9998 3.01721 30.9998 6.73913V24.2609C30.9998 27.9828 27.9825 31 24.2606 31H6.73889C3.01697 31 -0.000244141 27.9828 -0.000244141 24.2609V6.73913C-0.000244141 3.01721 3.01697 0 6.73889 0H24.2606Z" fill="#6A6F73"/>
<path fill-rule="evenodd" clip-rule="evenodd" d="M22.9998 15.7281C22.9998 15.2556 22.6167 14.8726 22.1443 14.8726H9.31178C8.8393 14.8726 8.45628 15.2556 8.45628 15.7281C8.45628 16.2005 8.8393 16.5836 9.31178 16.5836H22.1443C22.6167 16.5836 22.9998 16.2005 22.9998 15.7281Z" fill="#6A6F73" stroke="#6A6F73" stroke-linecap="round"/>
<path fill-rule="evenodd" clip-rule="evenodd" d="M15.727 23C16.1995 23 16.5825 22.617 16.5825 22.1445L16.5825 9.31202C16.5825 8.83954 16.1995 8.45652 15.727 8.45652C15.2545 8.45652 14.8715 8.83954 14.8715 9.31202L14.8715 22.1445C14.8715 22.617 15.2545 23 15.727 23Z" fill="#6A6F73" stroke="#6A6F73" stroke-linecap="round"/>
</svg>