<svg xmlns="http://www.w3.org/2000/svg" width="70" height="70" viewBox="0 0 70 70" fill="none">
<circle cx="34.5908" cy="34.5909" r="34.5909" transform="rotate(90 34.5908 34.5909)" fill="url(#paint0_linear_823_39)"/>
<path fill-rule="evenodd" clip-rule="evenodd" d="M27.7109 33.9362C27.7109 37.9768 24.4354 41.2523 20.3948 41.2523C16.3543 41.2523 13.0787 37.9768 13.0787 33.9362C13.0787 29.8956 16.3543 26.6201 20.3948 26.6201C24.4354 26.6201 27.7109 29.8956 27.7109 33.9362ZM31.6743 36.7388C31.941 35.6619 32.8417 34.7969 33.9511 34.7969C35.0605 34.7969 35.9613 35.6619 36.228 36.7388C37.4819 41.8023 42.0563 45.5559 47.5074 45.5559C50.2809 45.5559 52.8274 44.5842 54.8251 42.9627V45.5561C54.8251 46.7445 55.7885 47.7079 56.9769 47.7079C58.1653 47.7079 59.1287 46.7445 59.1287 45.5561V34.7971C59.1287 34.7065 59.1231 34.6172 59.1122 34.5295C59.1221 34.333 59.1271 34.1352 59.1271 33.9362C59.1271 27.5188 53.9248 22.3165 47.5074 22.3165C43.5946 22.3165 40.1335 24.2505 38.0279 27.2148C37.0629 28.5734 35.6175 29.6326 33.9511 29.6326C32.2847 29.6326 30.8394 28.5734 29.8743 27.2148C27.7687 24.2505 24.3076 22.3165 20.3948 22.3165C13.9775 22.3165 8.77515 27.5188 8.77515 33.9362C8.77515 40.3536 13.9775 45.5559 20.3948 45.5559C25.8459 45.5559 30.4203 41.8023 31.6743 36.7388ZM54.8235 33.9362C54.8235 37.9768 51.548 41.2523 47.5074 41.2523C43.4668 41.2523 40.1913 37.9768 40.1913 33.9362C40.1913 29.8956 43.4668 26.6201 47.5074 26.6201C51.548 26.6201 54.8235 29.8956 54.8235 33.9362Z" fill="white"/>
<mask id="path-3-inside-1_823_39" fill="white">
<path d="M9.13399 31.069C9.80484 28.4345 11.3782 26.1186 13.5803 24.5243L16.1885 28.127C14.8293 29.111 13.8582 30.5404 13.4441 32.1665L9.13399 31.069Z"/>
</mask>
<path d="M9.13399 31.069C9.80484 28.4345 11.3782 26.1186 13.5803 24.5243L16.1885 28.127C14.8293 29.111 13.8582 30.5404 13.4441 32.1665L9.13399 31.069Z" stroke="#EE5A8F" stroke-width="20" mask="url(#path-3-inside-1_823_39)"/>
<defs>
<linearGradient id="paint0_linear_823_39" x1="34.5908" y1="-1.66273e-08" x2="35.1487" y2="84.8035" gradientUnits="userSpaceOnUse">
<stop stop-color="#EE5A8F"/>
<stop offset="1" stop-color="#FFB629"/>
</linearGradient>
</defs>
</svg>