<svg xmlns="http://www.w3.org/2000/svg" width="266" height="48" viewBox="0 0 266 48" fill="none">
<path d="M12.9719 2.51063H9.0107C6.92781 2.51063 5.32845 3.03135 4.21261 4.0728C3.13397 5.11424 2.59465 6.82519 2.59465 9.20564H0.920898V4.46334C0.920898 1.48778 2.50166 0 5.6632 0H31.8853V2.51063H20.2248V36.8225H12.9719V2.51063Z" fill="#303030"/>
<path d="M42.984 37.3805C40.4175 37.3805 38.1673 36.7854 36.2331 35.5951C34.299 34.4049 32.7927 32.7869 31.714 30.7413C30.6726 28.6584 30.1518 26.3151 30.1518 23.7115C30.1518 20.8103 30.6726 18.3369 31.714 16.2912C32.7927 14.2455 34.2618 12.7019 36.1216 11.6605C37.9813 10.5818 40.0828 10.0425 42.426 10.0425C44.7321 10.0425 46.815 10.5074 48.6747 11.4373C50.5344 12.3672 52.0036 13.6876 53.0823 15.3985C54.1609 17.0723 54.7002 19.0064 54.7002 21.2009C54.7002 21.9076 54.663 22.7072 54.5886 23.5999L54.4771 24.7157H37.6837C37.6837 28.2492 38.2231 30.8342 39.3017 32.4708C40.3803 34.0702 41.8867 34.8698 43.8208 34.8698C45.6062 34.8698 47.0939 34.4793 48.2842 33.6982C49.5116 32.8799 50.6832 31.7269 51.799 30.2391L53.5286 31.5223C52.45 33.1961 51.0924 34.5909 49.4558 35.7067C47.8564 36.8225 45.6992 37.3805 42.984 37.3805ZM47.1683 22.2051C47.1683 18.7088 46.7592 16.2354 45.9409 14.7848C45.1226 13.297 43.951 12.5531 42.426 12.5531C41.0126 12.5531 39.8596 13.3156 38.9669 14.8406C38.1115 16.3284 37.6837 18.7832 37.6837 22.2051H47.1683Z" fill="#303030"/>
<path d="M67.5763 37.3805C64.5636 37.3805 62.2203 36.711 60.5466 35.372C58.91 33.9958 58.0917 32.1546 58.0917 29.8486C58.0917 27.9889 58.5195 26.4453 59.375 25.2179C60.2676 23.9904 61.8112 23.0606 64.0057 22.4283C66.2001 21.796 69.2501 21.4798 73.1555 21.4798H73.9924C73.9924 18.2439 73.5461 15.9564 72.6534 14.6174C71.7607 13.2412 70.4403 12.5531 68.6922 12.5531C67.2416 12.5531 66.0514 12.9065 65.1215 13.6132C64.1916 14.3199 63.5221 15.6403 63.113 17.5744H60.0445C60.0445 16.3098 60.1188 15.2311 60.2676 14.3385C60.4536 13.4458 60.8441 12.6647 61.4392 11.9952C62.5923 10.6934 65.3819 10.0425 69.808 10.0425C73.5275 10.0425 76.3542 11.0282 78.2884 12.9995C80.2597 14.9336 81.2453 17.8534 81.2453 21.7588V36.8225H76.503L74.5503 34.3119H74.2713C73.9366 34.8326 73.4159 35.3534 72.7092 35.8741C71.4446 36.8783 69.7336 37.3805 67.5763 37.3805ZM69.2501 34.5909C70.0312 34.5909 70.7007 34.4421 71.2586 34.1445C71.8165 33.8098 72.3558 33.3635 72.8765 32.8055C73.3601 32.2848 73.732 31.6711 73.9924 30.9644V23.9905H73.1555C70.5147 23.9905 68.5992 24.474 67.409 25.441C66.2187 26.3709 65.6236 27.8401 65.6236 29.8486C65.6236 31.3736 65.9398 32.5452 66.5721 33.3635C67.2044 34.1817 68.0971 34.5909 69.2501 34.5909Z" fill="#303030"/>
<path d="M99.5502 37.3805C96.6863 37.3805 94.25 36.7668 92.2415 35.5393C90.233 34.3119 88.708 32.6754 87.6666 30.6297C86.6623 28.5468 86.1602 26.2407 86.1602 23.7115C86.1602 21.1823 86.6623 18.8948 87.6666 16.8491C88.708 14.7662 90.233 13.1111 92.2415 11.8836C94.25 10.6562 96.6863 10.0425 99.5502 10.0425C104.014 10.0425 106.896 10.6934 108.198 11.9952C108.83 12.6275 109.221 13.4644 109.37 14.5059C109.518 15.5473 109.593 17.314 109.593 19.8061H107.919C107.77 17.4628 107.045 15.6775 105.743 14.4501C104.441 13.1854 102.656 12.5531 100.387 12.5531C98.3414 12.5531 96.7049 13.5016 95.4774 15.3985C94.2872 17.2582 93.6921 20.0292 93.6921 23.7115C93.6921 31.1504 96.0168 34.8698 100.666 34.8698C102.451 34.8698 103.939 34.4793 105.129 33.6982C106.357 32.8799 107.528 31.7269 108.644 30.2391L110.374 31.5223C109.295 33.1961 107.938 34.5909 106.301 35.7067C104.664 36.8225 102.414 37.3805 99.5502 37.3805Z" fill="#303030"/>
<path d="M115.177 7.25293C115.177 5.35601 114.917 3.96122 114.396 3.06855C113.875 2.13868 112.834 1.67375 111.272 1.67375H110.714V0H117.409C118.748 0 119.771 0.223169 120.477 0.669503C121.184 1.11584 121.686 1.85973 121.984 2.90117C122.281 3.90542 122.43 5.35601 122.43 7.25293V12.1626C122.765 11.9022 123.341 11.5489 124.16 11.1026C125.647 10.3959 127.117 10.0425 128.567 10.0425C131.58 10.0425 134.091 10.8236 136.099 12.3858C138.145 13.9107 139.168 16.533 139.168 20.2524V36.8225H131.915V20.5314C131.915 17.8534 131.431 15.9006 130.464 14.6732C129.534 13.4458 128.344 12.8321 126.893 12.8321C125.889 12.8321 124.829 13.1669 123.713 13.8364C123.267 14.0967 122.839 14.4129 122.43 14.7848V36.8225H115.177V7.25293Z" fill="#303030"/>
<path d="M156.627 47.9809C152.387 47.9809 149.04 47.2928 146.585 45.9166C144.167 44.5776 142.958 42.3831 142.958 39.3332C142.958 37.4735 143.702 35.9299 145.19 34.7025C146.678 33.475 148.445 32.601 150.49 32.0803C148.817 31.5595 147.98 30.5367 147.98 29.0117C147.98 27.7471 148.724 26.8172 150.211 26.2221C148.612 25.6642 147.273 24.6971 146.194 23.3209C145.153 21.9448 144.632 20.4198 144.632 18.746C144.632 15.6961 145.711 13.483 147.868 12.1068C150.063 10.7306 152.982 10.0425 156.627 10.0425H168.344V11.5489L163.322 12.2184C164.885 12.8135 166.149 13.7248 167.116 14.9522C168.12 16.1796 168.623 17.4442 168.623 18.746C168.623 21.796 167.581 23.9905 165.498 25.3295C163.453 26.6685 160.496 27.338 156.627 27.338C154.693 27.338 153.28 27.4495 152.387 27.6727C151.495 27.8587 151.048 28.305 151.048 29.0117C151.048 29.6068 151.495 29.9974 152.387 30.1833C153.28 30.3693 154.693 30.4809 156.627 30.5181C160.644 30.5925 163.917 31.3922 166.447 32.9171C169.013 34.4049 170.296 36.5436 170.296 39.3332C170.296 42.3831 169.069 44.5776 166.614 45.9166C164.196 47.2928 160.868 47.9809 156.627 47.9809ZM156.627 25.1063C159.603 25.1063 161.091 22.9862 161.091 18.746C161.091 16.6631 160.682 15.0638 159.863 13.9479C159.045 12.8321 157.966 12.2742 156.627 12.2742C155.251 12.2742 154.154 12.8135 153.336 13.8921C152.555 14.9708 152.164 16.5887 152.164 18.746C152.164 22.9862 153.652 25.1063 156.627 25.1063ZM156.627 45.4703C158.561 45.4703 160.068 44.9495 161.146 43.9081C162.225 42.9038 162.764 41.3789 162.764 39.3332C162.764 37.6966 162.244 36.339 161.202 35.2604C160.198 34.1445 158.822 33.4193 157.074 33.0845L154.451 32.8055C153.15 33.3635 152.164 34.1631 151.495 35.2046C150.825 36.246 150.49 37.6222 150.49 39.3332C150.49 41.3789 151.03 42.9038 152.108 43.9081C153.187 44.9495 154.693 45.4703 156.627 45.4703Z" fill="#303030"/>
<path d="M192.637 11.1583C193.307 11.6419 193.79 12.1812 194.088 12.7763C194.386 13.3342 194.534 13.6318 194.534 13.669L191.689 15.8449C191.429 15.5101 191.094 15.1568 190.685 14.7848C189.866 14.0409 188.918 13.669 187.839 13.669C185.682 13.669 184.027 14.2455 182.874 15.3985L182.985 16.2354C183.06 16.9049 183.097 17.5186 183.097 18.0765V36.8225H175.844V17.8534C175.844 15.9564 175.584 14.5616 175.063 13.669C174.58 12.7391 173.557 12.2742 171.995 12.2742H171.437V10.6004H176.96C178.225 10.6004 179.21 10.7678 179.917 11.1026C180.661 11.4001 181.237 11.9208 181.646 12.6647C183.655 10.9166 185.998 10.0425 188.676 10.0425C190.276 10.0425 191.596 10.4145 192.637 11.1583Z" fill="#303030"/>
<path d="M205.803 37.3805C202.79 37.3805 200.447 36.711 198.773 35.372C197.136 33.9958 196.318 32.1546 196.318 29.8486C196.318 27.9889 196.746 26.4453 197.601 25.2179C198.494 23.9904 200.037 23.0606 202.232 22.4283C204.426 21.796 207.476 21.4798 211.382 21.4798H212.219C212.219 18.2439 211.772 15.9564 210.88 14.6174C209.987 13.2412 208.667 12.5531 206.918 12.5531C205.468 12.5531 204.278 12.9065 203.348 13.6132C202.418 14.3199 201.748 15.6403 201.339 17.5744H198.271C198.271 16.3098 198.345 15.2311 198.494 14.3385C198.68 13.4458 199.07 12.6647 199.665 11.9952C200.818 10.6934 203.608 10.0425 208.034 10.0425C211.754 10.0425 214.58 11.0282 216.515 12.9995C218.486 14.9336 219.472 17.8534 219.472 21.7588V36.8225H214.729L212.777 34.3119H212.498C212.163 34.8326 211.642 35.3534 210.935 35.8741C209.671 36.8783 207.96 37.3805 205.803 37.3805ZM207.476 34.5909C208.257 34.5909 208.927 34.4421 209.485 34.1445C210.043 33.8098 210.582 33.3635 211.103 32.8055C211.586 32.2848 211.958 31.6711 212.219 30.9644V23.9905H211.382C208.741 23.9905 206.825 24.474 205.635 25.441C204.445 26.3709 203.85 27.8401 203.85 29.8486C203.85 31.3736 204.166 32.5452 204.798 33.3635C205.431 34.1817 206.323 34.5909 207.476 34.5909Z" fill="#303030"/>
<path d="M226.841 17.8534C226.841 15.9564 226.581 14.5616 226.06 13.669C225.577 12.7391 224.554 12.2742 222.992 12.2742H222.434V10.6004H227.957C230.375 10.6004 231.956 11.3071 232.699 12.7205H232.923C234.968 10.9352 237.312 10.0425 239.952 10.0425C241.775 10.0425 243.356 10.3959 244.695 11.1026C246.071 11.7721 247.056 12.4788 247.652 13.2226C248.544 12.2556 249.604 11.4931 250.832 10.9352C252.059 10.3401 253.64 10.0425 255.574 10.0425C262.083 10.0425 265.338 13.4644 265.338 20.3082V36.8225H258.085V20.2524C258.085 17.686 257.676 15.8077 256.857 14.6174C256.039 13.4272 254.96 12.8321 253.621 12.8321C252.617 12.8321 251.687 13.0367 250.832 13.4458C249.976 13.8178 249.307 14.3199 248.823 14.9522C248.898 15.101 249.046 15.5101 249.27 16.1796C249.567 17.2954 249.716 18.6716 249.716 20.3082V36.8225H242.463V20.2524C242.463 17.686 242.054 15.8077 241.236 14.6174C240.417 13.4272 239.339 12.8321 238 12.8321C237.219 12.8321 236.4 13.0739 235.545 13.5574C234.727 14.0037 234.113 14.5059 233.704 15.0638L233.871 15.8449C234.02 16.2912 234.094 17.0165 234.094 18.0207V36.8225H226.841V17.8534Z" fill="#303030"/>
</svg>